<svg xmlns="http://www.w3.org/2000/svg" viewBox="0 0 1200 630" width="1200" height="630">
  <rect width="1200" height="630" fill="#F6EEE6"/>
  <g transform="translate(460 130)">
    <g transform="translate(0 0) scale(0.3)"><g fill="#D06A57" transform="translate(0,1024) scale(0.1,-0.1)"><path d="M4662 8170 c-240 -121 -227 -463 23 -565 58 -23 58 -23 56 -152 -5 -312 -79 -557 -244 -803 -140 -210 -260 -324 -727 -695 -506 -402 -719 -612 -915 -905 -513 -766 -507 -1764 18 -2790 113 -220 143 -248 226 -206 28 15 36 28 99 166 181 399 489 690 902 854 218 86 414 129 935 206 490 72 703 119 952 211 637 233 1118 686 1357 1280 33 82 33 82 90 100 226 69 296 325 140 507 -75 88 -233 124 -338 78 -201 -89 -253 -364 -96 -510 60 -56 60 -53 11 -165 -239 -541 -700 -945 -1310 -1144 -237 -78 -458 -124 -851 -177 -842 -113 -1265 -284 -1615 -651 -47 -50 -85 -86 -85 -82 0 71 209 463 341 639 304 405 663 680 1294 987 871 424 1110 560 1411 801 680 546 1090 1282 1273 2285 26 144 26 144 70 160 112 41 193 152 199 276 18 338 -435 455 -579 151 -70 -149 -10 -332 136 -413 19 -11 19 -14 -9 -163 -160 -863 -523 -1556 -1067 -2036 -322 -285 -632 -474 -1281 -783 -711 -338 -1005 -528 -1344 -866 -263 -263 -449 -545 -584 -885 -56 -140 -60 -131 -35 67 80 614 329 1119 770 1558 204 205 317 294 755 605 574 406 881 672 1153 995 57 67 108 119 117 118 8 -1 42 -9 75 -17 385 -99 697 306 507 658 -38 71 -122 150 -200 188 -64 32 -71 33 -192 33 -154 0 -223 -26 -319 -122 -159 -159 -182 -376 -61 -572 32 -51 32 -51 -26 -124 -32 -39 -155 -169 -274 -288 -275 -276 -383 -362 -1002 -801 -369 -262 -578 -440 -768 -651 -470 -524 -682 -1043 -738 -1802 -7 -100 -7 -100 -41 -15 -320 820 -274 1624 128 2221 197 294 414 510 876 874 384 302 538 438 660 585 268 322 394 674 395 1101 0 107 0 107 68 175 80 80 102 131 102 234 0 222 -239 369 -438 270z m190 -112 c113 -33 154 -185 76 -274 -78 -88 -189 -88 -266 0 -115 132 19 326 190 274z m2794 -7 c169 -77 116 -330 -69 -331 -155 0 -235 181 -129 294 53 57 125 70 198 37z m-1413 -1154 c203 -119 193 -423 -17 -518 -51 -23 -180 -26 -231 -5 -46 20 -122 91 -148 141 -35 65 -31 193 8 264 33 60 93 114 151 136 63 24 180 15 237 -18z m1190 -1571 c108 -46 136 -178 57 -269 -136 -154 -374 9 -280 193 40 79 137 113 223 76z"/></g></g>
  </g>
  <text x="600" y="440" text-anchor="middle" fill="#333333" font-family="JetBrains Mono, SF Mono, monospace" font-size="76" font-weight="600">Lead Ace</text>
  <text x="600" y="510" text-anchor="middle" fill="#666666" font-family="Inter, -apple-system, sans-serif" font-size="28" font-weight="400">Outbound sales, autopiloted.</text>
</svg>
