<svg xmlns="http://www.w3.org/2000/svg" viewBox="0 0 1200 630" width="1200" height="630">
  <rect width="1200" height="630" fill="#F6EEE6"/>
  <g transform="translate(460 110) scale(0.28)"><g fill="#E87462" transform="translate(0,1024) scale(0.1,-0.1)"><path d="M4310 9361 c-110 -36 -224 -134 -275 -236 -27 -54 -30 -71 -33 -176 -4 -115 -3 -118 31 -190 58 -126 156 -212 285 -250 42 -12 42 -12 42 -146 0 -598 -201 -1090 -625 -1532 -156 -162 -335 -315 -795 -677 -803 -631 -1157 -1013 -1449 -1565 -179 -339 -270 -629 -337 -1084 -26 -172 -26 -672 0 -865 82 -620 227 -1080 527 -1680 141 -280 170 -323 230 -341 92 -28 147 17 214 176 244 585 695 1034 1270 1268 349 143 637 208 1405 317 269 38 586 90 675 110 458 104 746 203 1080 373 686 350 1238 953 1506 1646 42 108 42 108 95 120 310 70 447 435 259 690 -275 373 -852 121 -776 -339 16 -98 61 -179 136 -248 36 -33 65 -65 65 -71 0 -22 -81 -204 -141 -320 -457 -867 -1287 -1424 -2419 -1622 -202 -35 -339 -56 -725 -110 -902 -125 -1464 -327 -1910 -686 -99 -79 -345 -325 -345 -343 0 -6 -4 -10 -10 -10 -24 0 106 303 222 515 264 486 669 931 1162 1279 335 236 397 269 1568 844 497 244 705 359 998 554 1218 810 1918 1952 2205 3598 9 52 18 105 21 117 3 16 15 25 42 33 55 15 132 62 181 111 234 233 142 631 -169 734 -85 28 -248 18 -325 -20 -307 -154 -334 -568 -51 -770 36 -26 66 -53 66 -60 0 -32 -94 -479 -135 -641 -200 -797 -561 -1521 -1022 -2050 -525 -603 -1092 -987 -2268 -1539 -843 -396 -1323 -697 -1758 -1102 -424 -395 -728 -840 -942 -1378 -26 -66 -52 -124 -57 -130 -19 -19 5 218 51 497 32 189 126 504 213 713 201 481 451 848 848 1245 290 291 469 434 1080 865 846 597 1301 995 1684 1473 49 61 93 112 96 112 4 0 32 -9 64 -20 285 -98 593 7 757 258 263 403 0 951 -476 988 -277 21 -519 -112 -636 -351 -108 -221 -93 -443 43 -653 47 -73 56 -54 -122 -257 -408 -466 -763 -772 -1475 -1275 -652 -460 -853 -616 -1116 -867 -698 -669 -1090 -1407 -1239 -2333 -17 -103 -24 -180 -48 -525 -7 -100 -7 -100 -50 10 -310 787 -393 1609 -228 2261 198 787 602 1329 1549 2081 122 97 287 229 367 292 525 418 792 712 981 1083 166 327 235 619 246 1044 6 231 6 231 40 249 19 11 58 44 86 75 170 184 167 443 -7 615 -94 93 -155 119 -291 122 -60 1 -121 -1 -135 -6z m237 -207 c181 -88 175 -347 -11 -441 -214 -109 -439 133 -321 346 67 120 201 159 332 95z m3909 21 c268 -80 210 -486 -70 -486 -232 0 -337 281 -164 439 59 54 150 72 234 47z m-2095 -1615 c316 -60 434 -464 203 -696 -86 -86 -146 -109 -284 -109 -137 0 -177 15 -272 103 -306 284 -57 779 353 702z m1817 -2279 c232 -120 149 -465 -113 -466 -244 -1 -336 315 -131 453 60 40 179 47 244 13z"/></g></g>
  <text x="600" y="440" text-anchor="middle" fill="#333333" font-family="JetBrains Mono, SF Mono, monospace" font-size="76" font-weight="600">LeadAce</text>
  <text x="600" y="510" text-anchor="middle" fill="#666666" font-family="Inter, -apple-system, sans-serif" font-size="28" font-weight="400">Outbound sales, autopiloted.</text>
</svg>
